# xmcd CD database file
#
# Track frame offsets:
#	150
#	14325
#	30000
#	53850
#	73125
#	101625
#	123375
#	147450
#	165472
#
# Disc length: 2445 seconds
#
# Revision: 5
# Processed by: cddbd v1.5.2PL0 Copyright (c) Steve Scherf et al.
# Submitted via: CDex 1.70beta2
#
DISCID=74098b09
DTITLE=土岐麻子 - Standards On The Sofa〜土岐麻子ジャズを歌う〜
DYEAR=2004
DGENRE=Jazz
TTITLE0=Just One Of Those Things
TTITLE1=When You Wish Upon A Star
TTITLE2=Another Star
TTITLE3=I've Got You Under My Skin
TTITLE4=Nature Boy
TTITLE5=Human Nature
TTITLE6=Little Girl Blue
TTITLE7=(I Can't Get No) Satisfaction
TTITLE8=Play Our Love's Theme
EXTD=YEAR: 2004
EXTT0=
EXTT1=
EXTT2=
EXTT3=
EXTT4=
EXTT5=
EXTT6=
EXTT7=
EXTT8=
PLAYORDER=
